<svg width="134" height="39" viewBox="0 0 134 39" fill="none" xmlns="http://www.w3.org/2000/svg">
<path d="M133.935 34.5556C133.935 36.6407 132.211 38.3297 130.078 38.3297H3.86187C1.73025 38.3297 0 36.6407 0 34.5556V4.45813C0 2.37399 1.73025 0.679077 3.86187 0.679077H130.077C132.211 0.679077 133.934 2.37399 133.934 4.45813L133.935 34.5556Z" fill="black"/>
<path d="M29.4736 19.2931C29.4446 16.1405 32.1213 14.6067 32.2436 14.5353C30.7277 12.3804 28.3781 12.0859 27.5524 12.0625C25.579 11.86 23.6648 13.2138 22.6595 13.2138C21.6342 13.2138 20.0862 12.082 18.4177 12.1153C16.2708 12.1476 14.2622 13.3595 13.1607 15.2415C10.8873 19.0789 12.5828 24.7181 14.7609 27.8199C15.8504 29.339 17.1235 31.0352 18.7899 30.9755C20.4202 30.91 21.0292 29.9621 22.9966 29.9621C24.9459 29.9621 25.5178 30.9755 27.2173 30.9374C28.967 30.91 30.0686 29.4114 31.12 27.8786C32.3791 26.1375 32.8847 24.4227 32.9048 24.3347C32.8637 24.321 29.5068 23.0718 29.4736 19.2931Z" fill="white"/>
<path d="M26.2632 10.022C27.1401 8.95284 27.74 7.49829 27.5735 6.02222C26.3044 6.07699 24.7172 6.87812 23.8032 7.92379C22.9946 8.84524 22.2723 10.3555 22.4589 11.7759C23.8845 11.8795 25.3482 11.0745 26.2632 10.022Z" fill="white"/>
<path d="M53.0675 30.7578H50.7891L49.5411 26.9341H45.203L44.0141 30.7578H41.7959L46.0939 17.7402H48.7485L53.0675 30.7578ZM49.1648 25.3299L48.0362 21.9307C47.9168 21.5835 47.6931 20.7657 47.363 19.4785H47.3228C47.1914 20.0321 46.9797 20.8499 46.6888 21.9307L45.5802 25.3299H49.1648Z" fill="white"/>
<path d="M64.1198 25.949C64.1198 27.5454 63.6773 28.8073 62.7924 29.7336C61.9999 30.5582 61.0157 30.97 59.8408 30.97C58.5727 30.97 57.6618 30.5259 57.107 29.6377H57.0668V34.5824H54.9279V24.4612C54.9279 23.4576 54.9008 22.4276 54.8486 21.3712H56.7297L56.8491 22.859H56.8893C57.6026 21.738 58.6851 21.1785 60.1378 21.1785C61.2735 21.1785 62.2216 21.6157 62.98 22.4912C63.7405 23.3676 64.1198 24.5199 64.1198 25.949ZM61.9407 26.0253C61.9407 25.1117 61.73 24.3585 61.3066 23.7657C60.8441 23.1475 60.2231 22.8384 59.4446 22.8384C58.9168 22.8384 58.4373 23.0106 58.0089 23.35C57.5795 23.6924 57.2986 24.1394 57.1672 24.6931C57.1009 24.9513 57.0678 25.1626 57.0678 25.3289V26.894C57.0678 27.5767 57.2825 28.1529 57.7119 28.6234C58.1413 29.0939 58.6991 29.3286 59.3854 29.3286C60.191 29.3286 60.818 29.0254 61.2665 28.4209C61.7159 27.8154 61.9407 27.0172 61.9407 26.0253Z" fill="white"/>
<path d="M75.1939 25.949C75.1939 27.5454 74.7515 28.8073 73.8656 29.7336C73.0741 30.5582 72.0899 30.97 70.915 30.97C69.6469 30.97 68.736 30.5259 68.1822 29.6377H68.142V34.5824H66.0031V24.4612C66.0031 23.4576 65.976 22.4276 65.9238 21.3712H67.8049L67.9243 22.859H67.9645C68.6768 21.738 69.7593 21.1785 71.213 21.1785C72.3477 21.1785 73.2958 21.6157 74.0563 22.4912C74.8137 23.3676 75.1939 24.5199 75.1939 25.949ZM73.0149 26.0253C73.0149 25.1117 72.8032 24.3585 72.3798 23.7657C71.9173 23.1475 71.2983 22.8384 70.5188 22.8384C69.99 22.8384 69.5115 23.0106 69.0821 23.35C68.6527 23.6924 68.3728 24.1394 68.2414 24.6931C68.1761 24.9513 68.142 25.1626 68.142 25.3289V26.894C68.142 27.5767 68.3567 28.1529 68.7841 28.6234C69.2135 29.0929 69.7713 29.3286 70.4596 29.3286C71.2652 29.3286 71.8922 29.0254 72.3407 28.4209C72.7901 27.8154 73.0149 27.0172 73.0149 26.0253Z" fill="white"/>
<path d="M87.5739 27.107C87.5739 28.2143 87.1796 29.1152 86.3881 29.8107C85.5182 30.5707 84.3073 30.9502 82.7513 30.9502C81.3146 30.9502 80.1628 30.6803 79.291 30.1393L79.7866 28.4011C80.7257 28.9547 81.756 29.2325 82.8787 29.2325C83.6843 29.2325 84.3113 29.0545 84.7618 28.7004C85.2102 28.3463 85.434 27.8709 85.434 27.2782C85.434 26.7499 85.2494 26.3049 84.8792 25.9439C84.511 25.583 83.896 25.2475 83.0372 24.9374C80.6996 24.0873 79.5318 22.8421 79.5318 21.2046C79.5318 20.1345 79.9411 19.2571 80.7608 18.5743C81.5774 17.8906 82.667 17.5492 84.0294 17.5492C85.2444 17.5492 86.2536 17.7556 87.0593 18.1674L86.5245 19.8675C85.7721 19.4684 84.9213 19.2688 83.9692 19.2688C83.2168 19.2688 82.6289 19.4498 82.2075 19.8098C81.8513 20.1316 81.6728 20.5238 81.6728 20.9885C81.6728 21.503 81.8764 21.9285 82.2857 22.263C82.6419 22.5721 83.289 22.9067 84.2281 23.2676C85.3768 23.7186 86.2205 24.2458 86.7633 24.8503C87.304 25.4529 87.5739 26.207 87.5739 27.107Z" fill="white"/>
<path d="M94.6453 22.9359H92.2876V27.4932C92.2876 28.6524 92.703 29.2314 93.5357 29.2314C93.9179 29.2314 94.2349 29.1992 94.4858 29.1346L94.5449 30.7183C94.1236 30.8718 93.5688 30.9491 92.8815 30.9491C92.0368 30.9491 91.3767 30.6977 90.9001 30.1959C90.4256 29.6931 90.1868 28.85 90.1868 27.6654V22.9339H88.7822V21.3688H90.1868V19.6502L92.2876 19.032V21.3688H94.6453V22.9359Z" fill="white"/>
<path d="M105.283 25.9869C105.283 27.4298 104.86 28.6143 104.015 29.5407C103.129 30.4944 101.953 30.9698 100.488 30.9698C99.075 30.9698 97.9503 30.513 97.1116 29.5994C96.2729 28.6857 95.8535 27.5325 95.8535 26.1425C95.8535 24.6879 96.2849 23.4965 97.1507 22.5702C98.0145 21.6429 99.1803 21.1792 100.646 21.1792C102.059 21.1792 103.195 21.636 104.053 22.5506C104.874 23.4378 105.283 24.5833 105.283 25.9869ZM103.064 26.0544C103.064 25.1887 102.874 24.4463 102.49 23.8271C102.042 23.0778 101.401 22.7042 100.57 22.7042C99.71 22.7042 99.0569 23.0788 98.6085 23.8271C98.2242 24.4473 98.0346 25.2015 98.0346 26.0936C98.0346 26.9593 98.2242 27.7017 98.6085 28.3199C99.071 29.0692 99.7171 29.4428 100.551 29.4428C101.367 29.4428 102.009 29.0614 102.471 28.3003C102.865 27.6694 103.064 26.9191 103.064 26.0544Z" fill="white"/>
<path d="M112.236 23.2053C112.024 23.1671 111.798 23.1475 111.562 23.1475C110.809 23.1475 110.227 23.4244 109.818 23.979C109.462 24.4681 109.283 25.0863 109.283 25.8326V30.7578H107.145L107.165 24.3272C107.165 23.2454 107.138 22.2603 107.085 21.3721H108.948L109.026 23.1681H109.085C109.311 22.5509 109.667 22.0539 110.155 21.6813C110.631 21.3457 111.146 21.1785 111.701 21.1785C111.899 21.1785 112.077 21.1922 112.236 21.2166V23.2053Z" fill="white"/>
<path d="M121.802 25.6203C121.802 25.9939 121.777 26.3089 121.724 26.5662H115.307C115.332 27.4935 115.642 28.2027 116.238 28.6918C116.779 29.129 117.478 29.3481 118.337 29.3481C119.287 29.3481 120.154 29.2004 120.933 28.904L121.268 30.3517C120.357 30.7391 119.282 30.9318 118.041 30.9318C116.548 30.9318 115.376 30.5033 114.523 29.6474C113.672 28.7915 113.246 27.6422 113.246 26.2003C113.246 24.7849 113.642 23.6062 114.436 22.6662C115.267 21.6626 116.389 21.1608 117.802 21.1608C119.189 21.1608 120.24 21.6626 120.953 22.6662C121.518 23.4634 121.802 24.4494 121.802 25.6203ZM119.762 25.0793C119.776 24.4611 119.637 23.9271 119.347 23.4761C118.977 22.8961 118.408 22.6065 117.642 22.6065C116.943 22.6065 116.374 22.8892 115.94 23.4565C115.584 23.9075 115.372 24.4484 115.307 25.0784H119.762V25.0793Z" fill="white"/>
<path d="M48.4579 9.73155C48.4579 10.8829 48.1038 11.7495 47.3965 12.3315C46.7413 12.8686 45.8103 13.1376 44.6044 13.1376C44.0065 13.1376 43.4948 13.1121 43.0664 13.0613V6.77061C43.6252 6.68257 44.2272 6.63757 44.8773 6.63757C46.026 6.63757 46.8918 6.88114 47.4757 7.36827C48.1299 7.91899 48.4579 8.70642 48.4579 9.73155ZM47.3493 9.75992C47.3493 9.01357 47.1467 8.44133 46.7413 8.04224C46.336 7.64412 45.7441 7.44457 44.9646 7.44457C44.6335 7.44457 44.3516 7.46609 44.1178 7.51109V12.2934C44.2472 12.313 44.484 12.3218 44.8281 12.3218C45.6327 12.3218 46.2538 12.1036 46.6912 11.6674C47.1286 11.2311 47.3493 10.5953 47.3493 9.75992Z" fill="white"/>
<path d="M54.3362 10.7374C54.3362 11.4466 54.1285 12.0276 53.7131 12.4835C53.2777 12.952 52.7008 13.1858 51.9805 13.1858C51.2862 13.1858 50.7334 12.9618 50.3211 12.5118C49.9098 12.0628 49.7041 11.4965 49.7041 10.8137C49.7041 10.0996 49.9158 9.51372 50.3412 9.05887C50.7666 8.60401 51.3384 8.3761 52.0588 8.3761C52.753 8.3761 53.3108 8.6001 53.7332 9.04908C54.1345 9.48535 54.3362 10.0488 54.3362 10.7374ZM53.2456 10.7707C53.2456 10.3452 53.1513 9.98031 52.9637 9.6761C52.743 9.3083 52.429 9.1244 52.0206 9.1244C51.5983 9.1244 51.2772 9.3083 51.0565 9.6761C50.8679 9.98031 50.7746 10.351 50.7746 10.7893C50.7746 11.2148 50.8689 11.5796 51.0565 11.8838C51.2842 12.2516 51.6013 12.4355 52.0106 12.4355C52.4119 12.4355 52.7269 12.2487 52.9537 11.8741C53.1483 11.564 53.2456 11.1962 53.2456 10.7707Z" fill="white"/>
<path d="M62.2175 8.46936L60.7377 13.0805H59.7746L59.1616 11.0782C59.0061 10.5783 58.8796 10.0814 58.7813 9.5884H58.7623C58.671 10.0951 58.5446 10.591 58.382 11.0782L57.7309 13.0805H56.7568L55.3652 8.46936H56.4457L56.9805 10.6615C57.1099 11.1799 57.2162 11.6739 57.3015 12.1414H57.3206C57.3988 11.756 57.5283 11.265 57.7109 10.6712L58.382 8.47034H59.2388L59.8819 10.6243C60.0374 11.1496 60.1638 11.6553 60.2611 12.1424H60.2902C60.3615 11.668 60.4688 11.1623 60.6113 10.6243L61.1851 8.47034H62.2175V8.46936Z" fill="white"/>
<path d="M67.6679 13.0811H66.6165V10.4401C66.6165 9.62621 66.2995 9.21929 65.6634 9.21929C65.3514 9.21929 65.0996 9.33081 64.9039 9.55481C64.7103 9.77881 64.612 10.0429 64.612 10.3452V13.0802H63.5606V9.78761C63.5606 9.38265 63.5475 8.94345 63.5225 8.46805H64.4465L64.4956 9.18897H64.5247C64.6471 8.96497 64.8297 8.78009 65.0695 8.63239C65.3544 8.46023 65.6734 8.37317 66.0226 8.37317C66.464 8.37317 66.8312 8.51207 67.1231 8.79085C67.4863 9.13224 67.6679 9.64187 67.6679 10.3188V13.0811Z" fill="white"/>
<path d="M70.568 13.0808H69.5176V6.35388H70.568V13.0808Z" fill="white"/>
<path d="M76.758 10.7374C76.758 11.4466 76.5504 12.0276 76.135 12.4835C75.6996 12.952 75.1217 13.1858 74.4024 13.1858C73.7071 13.1858 73.1543 12.9618 72.743 12.5118C72.3316 12.0628 72.126 11.4965 72.126 10.8137C72.126 10.0996 72.3377 9.51372 72.763 9.05887C73.1884 8.60401 73.7603 8.3761 74.4796 8.3761C75.1749 8.3761 75.7317 8.6001 76.1551 9.04908C76.5564 9.48535 76.758 10.0488 76.758 10.7374ZM75.6665 10.7707C75.6665 10.3452 75.5722 9.98031 75.3846 9.6761C75.1648 9.3083 74.8498 9.1244 74.4425 9.1244C74.0191 9.1244 73.6981 9.3083 73.4784 9.6761C73.2898 9.98031 73.1965 10.351 73.1965 10.7893C73.1965 11.2148 73.2908 11.5796 73.4784 11.8838C73.7061 12.2516 74.0231 12.4355 74.4325 12.4355C74.8338 12.4355 75.1478 12.2487 75.3745 11.8741C75.5702 11.564 75.6665 11.1962 75.6665 10.7707Z" fill="white"/>
<path d="M81.8465 13.0811H80.9024L80.8242 12.55H80.7951C80.472 12.9735 80.0115 13.1858 79.4136 13.1858C78.9671 13.1858 78.606 13.0459 78.3341 12.7681C78.0873 12.5157 77.9639 12.2018 77.9639 11.8291C77.9639 11.2656 78.2046 10.8362 78.6892 10.5388C79.1728 10.2415 79.853 10.0957 80.7288 10.1026V10.0165C80.7288 9.40905 80.4018 9.10582 79.7467 9.10582C79.2801 9.10582 78.8688 9.22027 78.5137 9.4472L78.3 8.77422C78.7394 8.50913 79.2822 8.3761 79.9222 8.3761C81.1582 8.3761 81.7783 9.01191 81.7783 10.2835V11.9817C81.7783 12.4424 81.8013 12.8092 81.8465 13.0811ZM80.7549 11.4965V10.7853C79.5952 10.7658 79.0153 11.0759 79.0153 11.7146C79.0153 11.9553 79.0815 12.1352 79.2169 12.2555C79.3524 12.3759 79.5249 12.4355 79.7306 12.4355C79.9614 12.4355 80.1771 12.3641 80.3737 12.2223C80.5713 12.0795 80.6927 11.8985 80.7379 11.6765C80.7489 11.6266 80.7549 11.5659 80.7549 11.4965Z" fill="white"/>
<path d="M87.8203 13.0808H86.8873L86.8381 12.3403H86.809C86.5111 12.9038 86.0034 13.1855 85.2901 13.1855C84.7203 13.1855 84.2457 12.9673 83.8695 12.5311C83.4933 12.0948 83.3057 11.5284 83.3057 10.833C83.3057 10.0866 83.5093 9.48209 83.9187 9.02039C84.3149 8.59 84.8005 8.3748 85.3784 8.3748C86.0135 8.3748 86.4579 8.58315 86.7107 9.00083H86.7308V6.35388H87.7832V11.8385C87.7832 12.2875 87.7952 12.7013 87.8203 13.0808ZM86.7308 11.1362V10.3673C86.7308 10.2343 86.7207 10.1267 86.7017 10.0445C86.6425 9.79805 86.5151 9.59067 86.3215 9.4234C86.1258 9.25613 85.89 9.17201 85.6182 9.17201C85.2259 9.17201 84.9189 9.32363 84.6932 9.62784C84.4694 9.93206 84.3561 10.3204 84.3561 10.7948C84.3561 11.2506 84.4634 11.6204 84.6791 11.905C84.9069 12.2083 85.2139 12.3599 85.5981 12.3599C85.9432 12.3599 86.2191 12.2337 86.4288 11.9804C86.6315 11.7466 86.7308 11.4649 86.7308 11.1362Z" fill="white"/>
<path d="M96.8127 10.7374C96.8127 11.4466 96.605 12.0276 96.1897 12.4835C95.7543 12.952 95.1784 13.1858 94.4571 13.1858C93.7638 13.1858 93.211 12.9618 92.7977 12.5118C92.3863 12.0628 92.1807 11.4965 92.1807 10.8137C92.1807 10.0996 92.3924 9.51372 92.8177 9.05887C93.2431 8.60401 93.815 8.3761 94.5363 8.3761C95.2296 8.3761 95.7884 8.6001 96.2098 9.04908C96.6111 9.48535 96.8127 10.0488 96.8127 10.7374ZM95.7232 10.7707C95.7232 10.3452 95.6289 9.98031 95.4413 9.6761C95.2195 9.3083 94.9065 9.1244 94.4972 9.1244C94.0758 9.1244 93.7548 9.3083 93.5331 9.6761C93.3444 9.98031 93.2511 10.351 93.2511 10.7893C93.2511 11.2148 93.3454 11.5796 93.5331 11.8838C93.7608 12.2516 94.0778 12.4355 94.4872 12.4355C94.8885 12.4355 95.2045 12.2487 95.4312 11.8741C95.6249 11.564 95.7232 11.1962 95.7232 10.7707Z" fill="white"/>
<path d="M102.467 13.0811H101.416V10.4401C101.416 9.62621 101.099 9.21929 100.462 9.21929C100.15 9.21929 99.8984 9.33081 99.7037 9.55481C99.5091 9.77881 99.4118 10.0429 99.4118 10.3452V13.0802H98.3594V9.78761C98.3594 9.38265 98.3473 8.94345 98.3223 8.46805H99.2453L99.2944 9.18897H99.3235C99.4469 8.96497 99.6295 8.78009 99.8683 8.63239C100.154 8.46023 100.472 8.37317 100.822 8.37317C101.263 8.37317 101.63 8.51207 101.922 8.79085C102.286 9.13224 102.467 9.64187 102.467 10.3188V13.0811Z" fill="white"/>
<path d="M109.542 9.2379H108.385V11.4779C108.385 12.0472 108.59 12.3319 108.998 12.3319C109.186 12.3319 109.343 12.3162 109.466 12.284L109.493 13.0616C109.286 13.1379 109.013 13.176 108.677 13.176C108.261 13.176 107.938 13.0528 107.704 12.8063C107.47 12.5598 107.353 12.145 107.353 11.563V9.2379H106.662V8.47004H107.353V7.62489L108.384 7.32166V8.46906H109.541V9.2379H109.542Z" fill="white"/>
<path d="M115.108 13.0808H114.056V10.4593C114.056 9.63273 113.739 9.21896 113.104 9.21896C112.616 9.21896 112.283 9.45862 112.101 9.93792C112.069 10.0387 112.051 10.1619 112.051 10.3067V13.0798H111.001V6.35388H112.051V9.13288H112.071C112.403 8.62717 112.877 8.3748 113.492 8.3748C113.927 8.3748 114.288 8.5137 114.574 8.79248C114.93 9.13973 115.108 9.65621 115.108 10.339V13.0808Z" fill="white"/>
<path d="M120.85 10.5574C120.85 10.7413 120.836 10.8959 120.811 11.0221H117.658C117.672 11.4779 117.822 11.8252 118.114 12.0658C118.381 12.281 118.725 12.3886 119.147 12.3886C119.613 12.3886 120.039 12.3162 120.422 12.1705L120.586 12.8826C120.138 13.0723 119.61 13.1672 118.999 13.1672C118.267 13.1672 117.69 12.9569 117.273 12.5363C116.853 12.1157 116.646 11.5513 116.646 10.8431C116.646 10.1476 116.839 9.56851 117.229 9.10681C117.637 8.61381 118.188 8.36731 118.883 8.36731C119.563 8.36731 120.08 8.61381 120.429 9.10681C120.711 9.49808 120.85 9.98228 120.85 10.5574ZM119.847 10.2924C119.855 9.98815 119.786 9.726 119.643 9.50493C119.461 9.22028 119.183 9.07747 118.807 9.07747C118.463 9.07747 118.184 9.21637 117.97 9.49515C117.795 9.71719 117.692 9.98228 117.658 10.2924H119.847Z" fill="white"/>
</svg>
