<svg width="145" height="227" viewBox="0 0 145 227" fill="none" xmlns="http://www.w3.org/2000/svg">
<path d="M72.5 145C62.9792 145 53.5516 146.888 44.7555 150.557C35.9593 154.225 27.967 159.603 21.2348 166.381C14.5025 173.16 9.16221 181.207 5.51874 190.064C1.87528 198.921 3.60997e-06 208.413 3.19093e-06 218C2.77189e-06 227.586 1.87528 237.079 5.51874 245.936C9.1622 254.793 14.5025 262.84 21.2348 269.619C27.967 276.397 35.9594 281.775 44.7555 285.443C53.5516 289.112 62.9792 291 72.5 291L72.5 218L72.5 145Z" fill="#489D92"/>
<path d="M72.5 -3.16908e-06C62.9792 -3.58524e-06 53.5516 1.88819 44.7555 5.55679C35.9593 9.22538 27.967 14.6025 21.2348 21.3812C14.5025 28.1599 9.16221 36.2073 5.51874 45.0641C1.87528 53.9209 3.60997e-06 63.4135 3.19093e-06 73C2.77189e-06 82.5865 1.87528 92.0791 5.51874 100.936C9.1622 109.793 14.5025 117.84 21.2348 124.619C27.967 131.397 35.9594 136.775 44.7555 140.443C53.5516 144.112 62.9792 146 72.5 146L72.5 73L72.5 -3.16908e-06Z" fill="#FC6A65"/>
</svg>
